<?xml version="1.0" standalone="no"?>
<!DOCTYPE svg PUBLIC "-//W3C//DTD SVG 20010904//EN"
 "http://www.w3.org/TR/2001/REC-SVG-20010904/DTD/svg10.dtd">
<svg version="1.0" xmlns="http://www.w3.org/2000/svg"
 width="1024.000000pt" height="1024.000000pt" viewBox="0 0 1024.000000 1024.000000"
 preserveAspectRatio="xMidYMid meet">
<metadata>
Created by potrace 1.16, written by Peter Selinger 2001-2019
</metadata>
<g transform="translate(0.000000,1024.000000) scale(0.100000,-0.100000)"
fill="#000000" stroke="none">
<path d="M187 10052 c-147 -147 -188 -194 -185 -211 2 -18 40 15 213 189 175
175 206 210 185 210 -19 0 -69 -44 -213 -188z"/>
<path d="M287 9952 c-227 -227 -288 -294 -285 -311 2 -17 59 35 313 289 255
255 305 310 285 310 -20 0 -89 -64 -313 -288z"/>
<path d="M387 9852 c-307 -307 -388 -393 -385 -411 2 -17 79 55 413 389 335
335 405 410 385 410 -20 0 -109 -84 -413 -388z"/>
<path d="M487 9752 c-388 -388 -488 -493 -485 -511 2 -17 99 74 513 489 415
415 505 510 485 510 -20 0 -129 -104 -513 -488z"/>
<path d="M587 9652 c-468 -468 -588 -593 -585 -611 2 -17 118 94 613 589 495
495 605 610 585 610 -20 0 -149 -124 -613 -588z"/>
<path d="M687 9552 c-548 -548 -688 -693 -685 -711 2 -17 138 114 713 689 575
575 705 710 685 710 -20 0 -169 -144 -713 -688z"/>
<path d="M787 9452 c-629 -629 -788 -793 -785 -811 2 -17 158 133 813 789 655
655 805 810 785 810 -20 0 -189 -164 -813 -788z"/>
<path d="M887 9352 c-709 -709 -888 -893 -885 -911 2 -17 177 153 913 889 735
735 905 910 885 910 -20 0 -209 -184 -913 -888z"/>
<path d="M987 9252 c-789 -789 -988 -993 -985 -1011 2 -17 197 173 1013 989
815 815 1005 1010 985 1010 -20 0 -229 -204 -1013 -988z"/>
<path d="M1087 9152 c-870 -870 -1088 -1093 -1085 -1111 2 -17 217 193 1113
1089 895 895 1105 1110 1085 1110 -20 0 -249 -224 -1113 -1088z"/>
<path d="M1187 9052 c-950 -950 -1188 -1193 -1185 -1211 2 -17 237 212 1213
1189 975 975 1205 1210 1185 1210 -20 0 -269 -244 -1213 -1188z"/>
<path d="M1287 8952 c-1030 -1030 -1288 -1293 -1285 -1311 2 -17 256 232 1313
1289 1055 1055 1305 1310 1285 1310 -20 0 -289 -264 -1313 -1288z"/>
<path d="M1387 8852 c-1110 -1110 -1388 -1393 -1385 -1411 2 -17 276 252 1413
1389 1135 1135 1405 1410 1385 1410 -20 0 -309 -284 -1413 -1388z"/>
<path d="M1487 8752 c-1191 -1191 -1488 -1493 -1485 -1511 2 -17 296 271 1513
1489 1215 1215 1505 1510 1485 1510 -20 0 -329 -304 -1513 -1488z"/>
<path d="M1587 8652 c-1271 -1271 -1588 -1593 -1585 -1611 2 -17 315 291 1613
1589 1295 1295 1605 1610 1585 1610 -20 0 -349 -324 -1613 -1588z"/>
<path d="M1687 8552 c-1351 -1351 -1688 -1693 -1685 -1711 2 -17 335 311 1713
1689 1375 1375 1705 1710 1685 1710 -20 0 -369 -344 -1713 -1688z"/>
<path d="M1787 8452 c-1432 -1432 -1788 -1793 -1785 -1811 2 -17 355 330 1813
1789 1455 1455 1805 1810 1785 1810 -20 0 -389 -364 -1813 -1788z"/>
<path d="M1887 8352 c-1512 -1512 -1888 -1893 -1885 -1911 2 -17 374 350 1913
1889 1535 1535 1905 1910 1885 1910 -20 0 -409 -384 -1913 -1888z"/>
<path d="M1987 8252 c-1592 -1592 -1988 -1993 -1985 -2011 2 -17 394 370 2013
1989 1615 1615 2005 2010 1985 2010 -20 0 -429 -404 -2013 -1988z"/>
<path d="M2087 8152 c-1673 -1673 -2088 -2093 -2085 -2111 2 -17 414 390 2113
2089 1695 1695 2105 2110 2085 2110 -20 0 -449 -424 -2113 -2088z"/>
<path d="M2187 8052 c-1753 -1753 -2188 -2193 -2185 -2211 2 -17 433 409 2213
2189 1775 1775 2205 2210 2185 2210 -20 0 -469 -444 -2213 -2188z"/>
<path d="M2287 7952 c-1833 -1833 -2288 -2293 -2285 -2311 2 -17 453 429 2313
2289 1855 1855 2305 2310 2285 2310 -20 0 -489 -464 -2313 -2288z"/>
<path d="M3440 8904 c-1195 -1195 -1345 -1342 -1427 -1396 -85 -55 -93 -63
-93 -92 0 -28 -93 -124 -960 -991 -761 -761 -960 -965 -960 -985 0 -20 185
160 960 935 l960 960 0 -75 0 -75 -960 -960 c-761 -761 -960 -965 -960 -985 0
-20 185 160 960 935 l960 960 0 -75 0 -75 -960 -960 c-761 -761 -960 -965
-960 -985 0 -20 185 160 959 934 l959 959 4 -71 3 -72 -962 -963 c-764 -763
-963 -967 -963 -987 0 -20 202 177 1048 1021 l1047 1046 145 93 c80 51 152
101 160 110 16 19 2707 1770 2720 1770 4 0 486 -311 1071 -691 585 -380 1159
-752 1274 -827 116 -75 212 -139 215 -142 3 -3 40 -28 82 -55 66 -42 78 -54
78 -78 0 -24 2 -26 18 -16 15 10 26 6 61 -16 l42 -28 -60 -61 c-41 -42 -61
-69 -61 -86 0 -22 9 -16 73 48 40 39 76 72 80 72 4 0 26 -12 48 -27 l40 -26
-120 -121 c-89 -90 -121 -128 -121 -146 0 -21 21 -3 138 112 l137 137 44 -31
43 -31 -181 -181 c-137 -137 -181 -187 -181 -206 0 -21 33 8 198 172 l197 196
35 -23 c19 -13 38 -24 43 -24 4 -1 7 29 7 67 l0 67 960 960 c761 761 960 965
960 985 0 20 -185 -160 -960 -935 l-960 -960 0 75 0 75 960 960 c761 761 960
965 960 985 0 20 -185 -160 -960 -935 l-960 -960 0 75 0 75 960 960 c761 761
960 965 960 985 0 20 -185 -160 -960 -935 -878 -878 -960 -957 -960 -929 0 23
-7 36 -26 49 l-27 17 987 987 c781 781 986 991 986 1011 0 20 -194 -169 -1002
-977 l-1003 -1002 -44 31 -43 31 1046 1046 c829 829 1046 1051 1046 1071 0 20
-207 -182 -1063 -1038 l-1062 -1062 -40 26 c-22 15 -42 29 -45 31 -2 2 494
502 1103 1111 878 878 1107 1112 1107 1132 0 20 -218 -193 -1122 -1097 l-1123
-1122 -42 26 c-24 14 -43 28 -43 32 0 3 524 530 1165 1171 925 925 1165 1170
1165 1190 0 20 -230 -205 -1184 -1159 l-1183 -1183 -42 27 c-22 15 -41 30 -41
34 0 3 548 554 1217 1223 980 980 1213 1218 1193 1218 -20 0 -275 -250 -1237
-1212 l-1211 -1211 -46 29 -46 29 1183 1183 c951 951 1177 1182 1157 1182 -20
0 -267 -242 -1197 -1172 l-1171 -1171 -46 29 -46 29 1143 1143 c920 920 1137
1142 1117 1142 -20 0 -258 -233 -1155 -1130 -621 -621 -1133 -1130 -1138
-1130 -4 0 -26 12 -48 27 l-40 27 1103 1103 c889 889 1098 1103 1078 1103 -20
0 -250 -225 -1115 -1090 -599 -599 -1093 -1090 -1098 -1090 -4 0 -26 12 -49
26 l-41 26 1064 1064 c858 858 1059 1064 1039 1064 -20 0 -243 -218 -1079
-1054 l-1055 -1055 -44 31 -44 31 1023 1023 c825 825 1019 1024 999 1024 -20
0 -235 -210 -1040 -1015 l-1015 -1015 -40 26 c-22 15 -42 29 -45 31 -2 2 439
447 980 988 794 794 980 985 960 985 -20 0 -227 -202 -1000 -975 l-975 -975
-40 26 c-22 15 -42 29 -45 31 -2 2 421 429 940 948 762 762 940 945 920 945
-20 0 -220 -195 -961 -936 l-936 -936 -42 27 c-22 15 -41 30 -41 34 0 3 406
412 902 908 728 728 898 903 878 903 -20 0 -212 -187 -921 -896 l-896 -896
-46 29 -47 28 867 867 c700 700 863 868 843 868 -20 0 -204 -179 -882 -857
l-856 -856 -46 29 -46 29 828 828 c668 668 822 827 802 827 -20 0 -195 -170
-840 -815 -448 -448 -818 -815 -823 -815 -4 0 -26 12 -48 27 l-40 27 788 788
c637 637 783 788 763 788 -20 0 -187 -162 -800 -775 -426 -426 -778 -775 -783
-775 -4 0 -26 12 -48 27 l-40 27 748 748 c605 605 743 748 723 748 -20 0 -180
-155 -764 -739 l-740 -740 -44 31 -44 31 708 708 c574 574 704 709 684 709
-20 0 -172 -146 -724 -699 l-699 -699 -41 25 c-23 14 -43 28 -46 30 -2 2 297
305 665 673 542 542 665 670 645 670 -20 0 -164 -139 -685 -660 l-660 -660
-40 26 c-22 15 -42 29 -45 31 -2 2 279 287 625 633 510 510 625 630 605 630
-20 0 -157 -132 -646 -621 l-621 -621 -42 27 c-22 15 -41 30 -41 34 0 3 264
270 587 593 476 476 583 588 563 588 -20 0 -149 -124 -606 -581 l-580 -580
-47 28 -46 28 552 553 c448 448 547 552 527 552 -20 0 -141 -116 -567 -542
l-541 -541 -46 29 -46 29 513 513 c415 415 507 512 487 512 -20 0 -133 -108
-527 -502 l-501 -501 -47 28 -48 27 474 474 c386 386 469 474 449 474 -20 0
-124 -99 -485 -460 -253 -253 -463 -460 -468 -460 -4 0 -26 12 -48 27 l-40 27
433 433 c353 353 428 433 408 433 -20 0 -117 -91 -449 -424 l-424 -425 -45 31
-44 31 393 393 c322 322 389 394 369 394 -20 0 -109 -83 -409 -384 l-384 -384
-36 24 c-20 13 -42 24 -51 24 -8 0 147 162 345 360 295 295 355 360 335 360
-20 0 -112 -88 -430 -406 -433 -434 -393 -401 -715 -608 l-120 -78 545 546
c443 444 540 546 520 546 -20 0 -149 -125 -615 -591 -643 -645 -576 -586 -920
-807 l-100 -64 730 731 c591 592 725 731 705 731 -20 0 -186 -162 -800 -776
l-775 -776 -145 -96 c-80 -52 -176 -115 -215 -139 -59 -38 70 95 845 871 739
740 910 916 890 916 -20 0 -223 -199 -985 -961 l-960 -961 -175 -116 c-96 -63
-193 -126 -215 -139 -22 -14 455 470 1060 1076 887 888 1095 1101 1075 1101
-20 0 -260 -236 -1170 -1146 l-1145 -1146 -200 -132 c-110 -73 -207 -136 -215
-140 -8 -5 563 570 1270 1278 1035 1036 1280 1286 1260 1286 -20 0 -299 -274
-1360 -1336z"/>
<path d="M9037 7502 c-958 -958 -1198 -1203 -1195 -1221 2 -17 234 210 1201
1177 958 958 1198 1203 1195 1221 -2 17 -234 -210 -1201 -1177z"/>
<path d="M9037 7302 c-958 -958 -1198 -1203 -1195 -1221 2 -17 234 210 1201
1177 958 958 1198 1203 1195 1221 -2 17 -234 -210 -1201 -1177z"/>
<path d="M9037 7102 c-958 -958 -1198 -1203 -1195 -1221 2 -17 234 210 1201
1177 958 958 1198 1203 1195 1221 -2 17 -234 -210 -1201 -1177z"/>
<path d="M9037 6902 c-958 -958 -1198 -1203 -1195 -1221 2 -17 234 210 1201
1177 958 958 1198 1203 1195 1221 -2 17 -234 -210 -1201 -1177z"/>
<path d="M9037 6702 c-958 -958 -1198 -1203 -1195 -1221 2 -17 234 210 1201
1177 958 958 1198 1203 1195 1221 -2 17 -234 -210 -1201 -1177z"/>
<path d="M9037 6502 c-958 -958 -1198 -1203 -1195 -1221 2 -17 234 210 1201
1177 958 958 1198 1203 1195 1221 -2 17 -234 -210 -1201 -1177z"/>
<path d="M9037 6302 c-958 -958 -1198 -1203 -1195 -1221 2 -17 234 210 1201
1177 958 958 1198 1203 1195 1221 -2 17 -234 -210 -1201 -1177z"/>
<path d="M9037 6102 c-958 -958 -1198 -1203 -1195 -1221 2 -17 234 210 1201
1177 958 958 1198 1203 1195 1221 -2 17 -234 -210 -1201 -1177z"/>
<path d="M9037 5902 c-958 -958 -1198 -1203 -1195 -1221 2 -17 234 210 1201
1177 958 958 1198 1203 1195 1221 -2 17 -234 -210 -1201 -1177z"/>
<path d="M1197 5862 c-958 -958 -1198 -1203 -1195 -1221 2 -17 234 210 1201
1177 958 958 1198 1203 1195 1221 -2 17 -234 -210 -1201 -1177z"/>
<path d="M9037 5702 c-958 -958 -1198 -1203 -1195 -1221 2 -17 234 210 1201
1177 958 958 1198 1203 1195 1221 -2 17 -234 -210 -1201 -1177z"/>
<path d="M1197 5662 c-958 -958 -1198 -1203 -1195 -1221 2 -17 234 210 1201
1177 958 958 1198 1203 1195 1221 -2 17 -234 -210 -1201 -1177z"/>
<path d="M9165 5630 c-863 -863 -1065 -1070 -1045 -1070 37 0 2123 2087 2118
2119 -2 17 -209 -185 -1073 -1049z"/>
<path d="M1197 5462 c-958 -958 -1198 -1203 -1195 -1221 2 -17 234 210 1201
1177 958 958 1198 1203 1195 1221 -2 17 -234 -210 -1201 -1177z"/>
<path d="M9256 5522 c-785 -786 -974 -980 -960 -986 27 -10 1947 1911 1942
1943 -2 17 -191 -166 -982 -957z"/>
<path d="M1197 5262 c-958 -958 -1198 -1203 -1195 -1221 2 -17 234 210 1201
1177 958 958 1198 1203 1195 1221 -2 17 -234 -210 -1201 -1177z"/>
<path d="M9405 5469 c-456 -457 -810 -817 -786 -800 24 17 49 31 55 31 6 0
361 350 789 778 621 621 778 783 775 801 -2 17 -162 -138 -833 -810z"/>
<path d="M1535 5400 c-700 -700 -853 -857 -823 -848 53 16 1691 1655 1686
1687 -2 17 -168 -143 -863 -839z"/>
<path d="M9546 5412 c-553 -554 -684 -690 -670 -696 27 -10 1367 1331 1362
1363 -2 17 -134 -109 -692 -667z"/>
<path d="M1641 5307 c-605 -606 -749 -755 -735 -761 27 -10 1497 1461 1492
1493 -2 17 -146 -122 -757 -732z"/>
<path d="M9615 5280 c-495 -495 -617 -622 -607 -632 18 -18 1235 1199 1230
1231 -2 17 -120 -96 -623 -599z"/>
<path d="M1708 5173 c-540 -541 -686 -691 -678 -703 14 -22 1373 1337 1368
1369 -2 17 -132 -108 -690 -666z"/>
<path d="M9661 5126 c-457 -457 -572 -577 -564 -590 13 -23 1146 1111 1141
1143 -2 17 -111 -87 -577 -553z"/>
<path d="M4640 4720 l0 -960 27 0 c24 0 -28 -56 -385 -413 -331 -331 -411
-416 -400 -425 11 -9 99 74 438 413 l425 425 75 0 75 0 -463 -463 c-371 -371
-461 -466 -450 -475 11 -9 109 84 488 463 l475 475 75 0 75 0 -548 -548 c-430
-430 -547 -552 -547 -572 0 -20 109 84 573 548 l572 572 75 0 75 0 -323 -323
c-259 -259 -321 -326 -310 -335 11 -9 82 56 348 323 l335 335 75 0 75 0 -373
-373 c-299 -299 -371 -376 -360 -385 11 -9 91 66 398 373 320 320 390 385 412
385 l28 0 0 960 0 960 -480 0 -480 0 0 -960z"/>
<path d="M1925 5190 c-383 -383 -465 -470 -445 -470 37 0 923 887 918 919 -2
17 -91 -66 -473 -449z"/>
<path d="M9677 4942 c-469 -469 -558 -563 -555 -583 3 -21 6 -18 26 23 26 52
107 132 155 153 18 8 224 206 485 468 359 359 453 458 450 476 -2 17 -108 -84
-561 -537z"/>
<path d="M2002 5067 c-318 -318 -391 -395 -376 -401 27 -10 777 741 772 773
-2 17 -75 -51 -396 -372z"/>
<path d="M9865 4930 c-303 -303 -365 -370 -345 -370 37 0 723 687 718 719 -2
17 -71 -47 -373 -349z"/>
<path d="M2052 4917 c-275 -275 -341 -346 -330 -355 20 -16 681 645 676 677
-2 17 -66 -41 -346 -322z"/>
<path d="M9940 4805 c-235 -235 -292 -297 -280 -305 22 -14 583 547 578 579
-2 17 -56 -32 -298 -274z"/>
<path d="M2077 4742 c-251 -251 -318 -324 -315 -341 2 -17 61 37 321 297 251
251 318 324 315 341 -2 17 -61 -37 -321 -297z"/>
<path d="M9988 4653 c-215 -215 -273 -283 -240 -283 4 0 117 110 250 243 191
191 243 249 240 266 -2 18 -47 -23 -250 -226z"/>
<path d="M9997 4462 c-187 -187 -238 -244 -235 -261 2 -18 45 21 241 217 187
187 238 244 235 261 -2 18 -45 -21 -241 -217z"/>
<path d="M9997 4262 c-187 -187 -238 -244 -235 -261 2 -18 45 21 241 217 187
187 238 244 235 261 -2 18 -45 -21 -241 -217z"/>
<path d="M247 4112 c-190 -190 -247 -253 -247 -272 0 -20 42 17 239 214 170
170 241 248 249 272 5 19 9 34 8 34 0 0 -112 -111 -249 -248z"/>
<path d="M9997 4062 c-187 -187 -238 -244 -235 -261 2 -18 45 21 241 217 187
187 238 244 235 261 -2 18 -45 -21 -241 -217z"/>
<path d="M237 3902 c-187 -187 -238 -244 -235 -261 2 -18 45 21 241 217 187
187 238 244 235 261 -2 18 -45 -21 -241 -217z"/>
<path d="M9517 3382 c-572 -572 -718 -723 -715 -741 2 -17 140 115 721 697
572 572 718 723 715 741 -2 17 -140 -115 -721 -697z"/>
<path d="M237 3702 c-187 -187 -238 -244 -235 -261 2 -18 45 21 241 217 187
187 238 244 235 261 -2 18 -45 -21 -241 -217z"/>
<path d="M9842 3507 c-315 -315 -391 -396 -380 -405 20 -16 781 745 776 777
-2 17 -76 -51 -396 -372z"/>
<path d="M247 3512 c-195 -195 -248 -254 -245 -271 2 -18 51 27 273 249 223
223 265 270 245 270 -19 0 -81 -56 -273 -248z"/>
<path d="M347 3412 c-275 -275 -348 -353 -345 -371 2 -17 71 47 373 349 303
303 365 370 345 370 -20 0 -101 -76 -373 -348z"/>
<path d="M447 3312 c-356 -356 -448 -453 -445 -471 2 -17 91 66 473 449 383
383 465 470 445 470 -20 0 -121 -96 -473 -448z"/>
<path d="M547 3212 c-436 -436 -548 -553 -545 -571 2 -17 110 86 573 549 463
463 565 570 545 570 -20 0 -141 -116 -573 -548z"/>
<path d="M647 3112 c-516 -516 -648 -653 -645 -671 2 -17 130 106 673 649 543
543 665 670 645 670 -20 0 -161 -136 -673 -648z"/>
<path d="M1162 3427 c-267 -267 -331 -336 -320 -345 11 -9 84 58 358 333 283
283 340 345 320 345 -20 0 -98 -73 -358 -333z"/>
<path d="M1312 3377 c-307 -307 -381 -386 -370 -395 11 -9 93 68 408 383 323
323 390 395 370 395 -20 0 -108 -83 -408 -383z"/>
<path d="M1462 3327 c-347 -347 -431 -436 -420 -445 11 -9 103 78 458 433 363
363 440 445 420 445 -20 0 -118 -93 -458 -433z"/>
<path d="M1607 3272 c-388 -388 -488 -493 -485 -511 2 -17 99 74 513 489 415
415 505 510 485 510 -20 0 -129 -104 -513 -488z"/>
<path d="M1707 3172 c-468 -468 -588 -593 -585 -611 2 -17 118 94 613 589 495
495 605 610 585 610 -20 0 -149 -124 -613 -588z"/>
<path d="M2152 3417 c-275 -275 -341 -346 -330 -355 11 -9 86 60 368 343 291
291 350 355 330 355 -20 0 -100 -75 -368 -343z"/>
<path d="M2302 3367 c-315 -315 -391 -396 -380 -405 11 -9 95 70 418 393 331
331 400 405 380 405 -20 0 -110 -85 -418 -393z"/>
<path d="M2452 3317 c-355 -355 -441 -446 -430 -455 11 -9 105 80 468 443 371
371 450 455 430 455 -20 0 -120 -95 -468 -443z"/>
<path d="M2587 3252 c-404 -404 -508 -513 -505 -531 2 -17 103 78 533 509 431
431 525 530 505 530 -20 0 -133 -108 -533 -508z"/>
<path d="M2687 3152 c-484 -484 -608 -613 -605 -631 2 -17 122 98 633 609 511
511 625 630 605 630 -20 0 -153 -128 -633 -608z"/>
<path d="M3142 3407 c-283 -283 -351 -356 -340 -365 11 -9 88 62 378 353 299
299 360 365 340 365 -20 0 -102 -77 -378 -353z"/>
<path d="M3292 3357 c-323 -323 -401 -406 -390 -415 11 -9 97 72 428 403 339
339 410 415 390 415 -20 0 -112 -87 -428 -403z"/>
<path d="M3442 3307 c-363 -363 -451 -456 -440 -465 11 -9 107 82 478 453 379
379 460 465 440 465 -20 0 -122 -97 -478 -453z"/>
<path d="M3567 3232 c-420 -420 -528 -533 -525 -551 2 -17 107 82 553 529 447
447 545 550 525 550 -20 0 -137 -112 -553 -528z"/>
<path d="M3667 3132 c-493 -493 -627 -632 -627 -652 0 -21 26 1 160 135 88 88
160 167 160 175 0 20 315 334 327 327 5 -3 155 140 334 319 266 266 319 324
299 324 -20 0 -158 -133 -653 -628z"/>
<path d="M4132 3397 c-291 -291 -361 -366 -350 -375 11 -9 90 64 388 363 307
307 370 375 350 375 -20 0 -104 -79 -388 -363z"/>
<path d="M5272 3337 c-339 -339 -421 -426 -410 -435 11 -9 101 76 448 423 355
355 430 435 410 435 -20 0 -116 -91 -448 -423z"/>
<path d="M5423 3288 c-364 -366 -470 -477 -464 -490 5 -14 111 87 496 472 399
399 485 490 465 490 -20 0 -126 -101 -497 -472z"/>
<path d="M5527 3192 c-452 -452 -568 -573 -565 -591 2 -17 114 90 593 569 479
479 585 590 565 590 -20 0 -145 -120 -593 -568z"/>
<path d="M5962 3427 c-267 -267 -331 -336 -320 -345 11 -9 84 58 358 333 283
283 340 345 320 345 -20 0 -98 -73 -358 -333z"/>
<path d="M6112 3377 c-307 -307 -381 -386 -370 -395 11 -9 93 68 408 383 323
323 390 395 370 395 -20 0 -108 -83 -408 -383z"/>
<path d="M6262 3327 c-347 -347 -431 -436 -420 -445 11 -9 103 78 458 433 363
363 440 445 420 445 -20 0 -118 -93 -458 -433z"/>
<path d="M6407 3272 c-388 -388 -488 -493 -485 -511 2 -17 99 74 513 489 415
415 505 510 485 510 -20 0 -129 -104 -513 -488z"/>
<path d="M6507 3172 c-468 -468 -588 -593 -585 -611 2 -17 118 94 613 589 495
495 605 610 585 610 -20 0 -149 -124 -613 -588z"/>
<path d="M6952 3417 c-275 -275 -341 -346 -330 -355 11 -9 86 60 368 343 291
291 350 355 330 355 -20 0 -100 -75 -368 -343z"/>
<path d="M7102 3367 c-315 -315 -391 -396 -380 -405 11 -9 95 70 418 393 331
331 400 405 380 405 -20 0 -110 -85 -418 -393z"/>
<path d="M7252 3317 c-355 -355 -441 -446 -430 -455 11 -9 105 80 468 443 371
371 450 455 430 455 -20 0 -120 -95 -468 -443z"/>
<path d="M7387 3252 c-404 -404 -508 -513 -505 -531 2 -17 103 78 533 509 431
431 525 530 505 530 -20 0 -133 -108 -533 -508z"/>
<path d="M7487 3152 c-484 -484 -608 -613 -605 -631 2 -17 122 98 633 609 511
511 625 630 605 630 -20 0 -153 -128 -633 -608z"/>
<path d="M7942 3407 c-283 -283 -351 -356 -340 -365 11 -9 88 62 378 353 299
299 360 365 340 365 -20 0 -102 -77 -378 -353z"/>
<path d="M8092 3357 c-323 -323 -401 -406 -390 -415 11 -9 97 72 428 403 339
339 410 415 390 415 -20 0 -112 -87 -428 -403z"/>
<path d="M8242 3307 c-363 -363 -451 -456 -440 -465 11 -9 107 82 478 453 379
379 460 465 440 465 -20 0 -122 -97 -478 -453z"/>
<path d="M8367 3232 c-420 -420 -528 -533 -525 -551 2 -17 107 82 553 529 447
447 545 550 525 550 -20 0 -137 -112 -553 -528z"/>
<path d="M8467 3132 c-493 -493 -627 -632 -627 -652 0 -21 26 1 160 135 88 88
160 167 160 175 0 20 315 334 327 327 5 -3 155 140 334 319 266 266 319 324
299 324 -20 0 -158 -133 -653 -628z"/>
<path d="M8932 3397 c-291 -291 -361 -366 -350 -375 11 -9 90 64 388 363 307
307 370 375 350 375 -20 0 -104 -79 -388 -363z"/>
<path d="M9082 3347 c-331 -331 -411 -416 -400 -425 11 -9 99 74 438 413 347
347 420 425 400 425 -20 0 -114 -89 -438 -413z"/>
<path d="M9232 3297 c-371 -371 -461 -466 -450 -475 11 -9 109 84 488 463 387
387 470 475 450 475 -20 0 -124 -99 -488 -463z"/>
<path d="M9892 3357 c-275 -275 -341 -346 -330 -355 20 -16 681 645 676 677
-2 17 -66 -41 -346 -322z"/>
<path d="M9942 3207 c-235 -235 -291 -296 -280 -305 20 -16 581 545 576 577
-2 17 -56 -32 -296 -272z"/>
<path d="M9993 3058 c-185 -186 -239 -247 -234 -260 10 -27 484 449 479 481
-2 18 -46 -22 -245 -221z"/>
<path d="M9997 2862 c-187 -187 -238 -244 -235 -261 2 -18 45 21 241 217 187
187 238 244 235 261 -2 18 -45 -21 -241 -217z"/>
<path d="M9997 2662 c-187 -187 -238 -244 -235 -261 2 -18 45 21 241 217 187
187 238 244 235 261 -2 18 -45 -21 -241 -217z"/>
<path d="M4157 2622 c-123 -123 -158 -164 -155 -181 2 -18 29 5 161 137 123
123 158 164 155 181 -2 18 -29 -5 -161 -137z"/>
<path d="M8957 2622 c-123 -123 -158 -164 -155 -181 2 -18 29 5 161 137 123
123 158 164 155 181 -2 18 -29 -5 -161 -137z"/>
<path d="M237 2502 c-187 -187 -238 -244 -235 -261 2 -18 45 21 241 217 187
187 238 244 235 261 -2 18 -45 -21 -241 -217z"/>
<path d="M5117 2582 c-123 -123 -158 -164 -155 -181 2 -18 29 5 161 137 123
123 158 164 155 181 -2 18 -29 -5 -161 -137z"/>
<path d="M1277 2542 c-123 -123 -158 -164 -155 -181 2 -18 29 5 161 137 123
123 158 164 155 181 -2 18 -29 -5 -161 -137z"/>
<path d="M6077 2542 c-123 -123 -158 -164 -155 -181 2 -18 29 5 161 137 123
123 158 164 155 181 -2 18 -29 -5 -161 -137z"/>
<path d="M9997 2462 c-187 -187 -238 -244 -235 -261 2 -18 45 21 241 217 187
187 238 244 235 261 -2 18 -45 -21 -241 -217z"/>
<path d="M2237 2502 c-123 -123 -158 -164 -155 -181 2 -18 29 5 161 137 123
123 158 164 155 181 -2 18 -29 -5 -161 -137z"/>
<path d="M7037 2502 c-123 -123 -158 -164 -155 -181 2 -18 29 5 161 137 123
123 158 164 155 181 -2 18 -29 -5 -161 -137z"/>
<path d="M3197 2462 c-123 -123 -158 -164 -155 -181 2 -18 29 5 161 137 123
123 158 164 155 181 -2 18 -29 -5 -161 -137z"/>
<path d="M7997 2462 c-123 -123 -158 -164 -155 -181 2 -18 29 5 161 137 123
123 158 164 155 181 -2 18 -29 -5 -161 -137z"/>
<path d="M4157 2422 c-123 -123 -158 -164 -155 -181 2 -18 29 5 161 137 123
123 158 164 155 181 -2 18 -29 -5 -161 -137z"/>
<path d="M8957 2422 c-123 -123 -158 -164 -155 -181 2 -18 29 5 161 137 123
123 158 164 155 181 -2 18 -29 -5 -161 -137z"/>
<path d="M237 2302 c-187 -187 -238 -244 -235 -261 2 -18 45 21 241 217 187
187 238 244 235 261 -2 18 -45 -21 -241 -217z"/>
<path d="M5117 2382 c-123 -123 -158 -164 -155 -181 2 -18 29 5 161 137 123
123 158 164 155 181 -2 18 -29 -5 -161 -137z"/>
<path d="M1277 2342 c-123 -123 -158 -164 -155 -181 2 -18 29 5 161 137 123
123 158 164 155 181 -2 18 -29 -5 -161 -137z"/>
<path d="M6077 2342 c-123 -123 -158 -164 -155 -181 2 -18 29 5 161 137 123
123 158 164 155 181 -2 18 -29 -5 -161 -137z"/>
<path d="M9997 2262 c-187 -187 -238 -244 -235 -261 2 -18 45 21 241 217 187
187 238 244 235 261 -2 18 -45 -21 -241 -217z"/>
<path d="M2237 2302 c-123 -123 -158 -164 -155 -181 2 -18 29 5 161 137 123
123 158 164 155 181 -2 18 -29 -5 -161 -137z"/>
<path d="M7037 2302 c-123 -123 -158 -164 -155 -181 2 -18 29 5 161 137 123
123 158 164 155 181 -2 18 -29 -5 -161 -137z"/>
<path d="M3197 2262 c-123 -123 -158 -164 -155 -181 2 -18 29 5 161 137 123
123 158 164 155 181 -2 18 -29 -5 -161 -137z"/>
<path d="M7997 2262 c-123 -123 -158 -164 -155 -181 2 -18 29 5 161 137 123
123 158 164 155 181 -2 18 -29 -5 -161 -137z"/>
<path d="M4157 2222 c-123 -123 -158 -164 -155 -181 2 -18 29 5 161 137 123
123 158 164 155 181 -2 18 -29 -5 -161 -137z"/>
<path d="M8957 2222 c-123 -123 -158 -164 -155 -181 2 -18 29 5 161 137 123
123 158 164 155 181 -2 18 -29 -5 -161 -137z"/>
<path d="M237 2102 c-187 -187 -238 -244 -235 -261 2 -18 45 21 241 217 187
187 238 244 235 261 -2 18 -45 -21 -241 -217z"/>
<path d="M5117 2182 c-123 -123 -158 -164 -155 -181 2 -18 29 5 161 137 123
123 158 164 155 181 -2 18 -29 -5 -161 -137z"/>
<path d="M1277 2142 c-123 -123 -158 -164 -155 -181 2 -18 29 5 161 137 123
123 158 164 155 181 -2 18 -29 -5 -161 -137z"/>
<path d="M6077 2142 c-123 -123 -158 -164 -155 -181 2 -18 29 5 161 137 123
123 158 164 155 181 -2 18 -29 -5 -161 -137z"/>
<path d="M10005 2070 c-191 -191 -226 -230 -205 -230 37 0 443 407 438 439 -2
18 -44 -19 -233 -209z"/>
<path d="M2237 2102 c-123 -123 -158 -164 -155 -181 2 -18 29 5 161 137 123
123 158 164 155 181 -2 18 -29 -5 -161 -137z"/>
<path d="M7037 2102 c-123 -123 -158 -164 -155 -181 2 -18 29 5 161 137 123
123 158 164 155 181 -2 18 -29 -5 -161 -137z"/>
<path d="M3197 2062 c-123 -123 -158 -164 -155 -181 2 -18 29 5 161 137 123
123 158 164 155 181 -2 18 -29 -5 -161 -137z"/>
<path d="M7997 2062 c-123 -123 -158 -164 -155 -181 2 -18 29 5 161 137 123
123 158 164 155 181 -2 18 -29 -5 -161 -137z"/>
<path d="M4158 2023 c-87 -87 -158 -164 -158 -171 0 -30 35 -3 174 137 114
114 147 153 144 170 -2 18 -29 -5 -160 -136z"/>
<path d="M8958 2023 c-87 -87 -158 -164 -158 -171 0 -30 35 -3 174 137 114
114 147 153 144 170 -2 18 -29 -5 -160 -136z"/>
<path d="M9997 1262 c-187 -187 -238 -244 -235 -261 2 -18 45 21 241 217 187
187 238 244 235 261 -2 18 -45 -21 -241 -217z"/>
<path d="M146 1211 c-114 -114 -147 -153 -144 -170 2 -18 32 7 173 149 143
143 166 170 145 170 -19 0 -61 -36 -174 -149z"/>
<path d="M4147 1212 c-110 -110 -147 -153 -147 -172 0 -21 26 1 160 135 88 88
160 165 160 172 0 31 -34 4 -173 -135z"/>
<path d="M8947 1212 c-110 -110 -147 -153 -147 -172 0 -21 26 1 160 135 88 88
160 165 160 172 0 31 -34 4 -173 -135z"/>
<path d="M237 1102 c-187 -187 -238 -244 -235 -261 2 -18 45 21 241 217 187
187 238 244 235 261 -2 18 -45 -21 -241 -217z"/>
<path d="M5117 1182 c-123 -123 -158 -164 -155 -181 2 -18 29 5 161 137 123
123 158 164 155 181 -2 18 -29 -5 -161 -137z"/>
<path d="M1277 1142 c-123 -123 -158 -164 -155 -181 2 -18 29 5 161 137 123
123 158 164 155 181 -2 18 -29 -5 -161 -137z"/>
<path d="M6077 1142 c-123 -123 -158 -164 -155 -181 2 -18 29 5 161 137 123
123 158 164 155 181 -2 18 -29 -5 -161 -137z"/>
<path d="M9997 1062 c-187 -187 -238 -244 -235 -261 2 -18 45 21 241 217 187
187 238 244 235 261 -2 18 -45 -21 -241 -217z"/>
<path d="M2237 1102 c-123 -123 -158 -164 -155 -181 2 -18 29 5 161 137 123
123 158 164 155 181 -2 18 -29 -5 -161 -137z"/>
<path d="M7037 1102 c-123 -123 -158 -164 -155 -181 2 -18 29 5 161 137 123
123 158 164 155 181 -2 18 -29 -5 -161 -137z"/>
<path d="M3197 1062 c-123 -123 -158 -164 -155 -181 2 -18 29 5 161 137 123
123 158 164 155 181 -2 18 -29 -5 -161 -137z"/>
<path d="M7997 1062 c-123 -123 -158 -164 -155 -181 2 -18 29 5 161 137 123
123 158 164 155 181 -2 18 -29 -5 -161 -137z"/>
<path d="M4157 1022 c-123 -123 -158 -164 -155 -181 2 -18 29 5 161 137 123
123 158 164 155 181 -2 18 -29 -5 -161 -137z"/>
<path d="M8957 1022 c-123 -123 -158 -164 -155 -181 2 -18 29 5 161 137 123
123 158 164 155 181 -2 18 -29 -5 -161 -137z"/>
<path d="M237 902 c-187 -187 -238 -244 -235 -261 2 -18 45 21 241 217 187
187 238 244 235 261 -2 18 -45 -21 -241 -217z"/>
<path d="M5117 982 c-123 -123 -158 -164 -155 -181 2 -18 29 5 161 137 123
123 158 164 155 181 -2 18 -29 -5 -161 -137z"/>
<path d="M1277 942 c-123 -123 -158 -164 -155 -181 2 -18 29 5 161 137 123
123 158 164 155 181 -2 18 -29 -5 -161 -137z"/>
<path d="M6077 942 c-123 -123 -158 -164 -155 -181 2 -18 29 5 161 137 123
123 158 164 155 181 -2 18 -29 -5 -161 -137z"/>
<path d="M9685 550 c-447 -447 -545 -550 -525 -550 37 0 1083 1047 1078 1079
-2 17 -107 -82 -553 -529z"/>
<path d="M2238 903 c-87 -87 -158 -164 -158 -171 0 -6 -6 -12 -13 -12 -6 0
-174 -162 -372 -360 -294 -295 -355 -360 -335 -360 37 0 1043 1007 1038 1039
-2 18 -29 -5 -160 -136z"/>
<path d="M7038 903 c-87 -87 -158 -164 -158 -171 0 -6 -6 -12 -13 -12 -6 0
-174 -162 -372 -360 -294 -295 -355 -360 -335 -360 37 0 1043 1007 1038 1039
-2 18 -29 -5 -160 -136z"/>
<path d="M2845 510 c-415 -415 -505 -510 -485 -510 37 0 1003 967 998 999 -2
17 -99 -74 -513 -489z"/>
<path d="M7645 510 c-415 -415 -505 -510 -485 -510 37 0 1003 967 998 999 -2
17 -99 -74 -513 -489z"/>
<path d="M3825 490 c-399 -399 -485 -490 -465 -490 37 0 963 927 958 959 -2
17 -95 -70 -493 -469z"/>
<path d="M8625 490 c-399 -399 -485 -490 -465 -490 37 0 963 927 958 959 -2
17 -95 -70 -493 -469z"/>
<path d="M237 702 c-187 -187 -238 -244 -235 -261 2 -18 45 21 241 217 187
187 238 244 235 261 -2 18 -45 -21 -241 -217z"/>
<path d="M4805 470 c-383 -383 -465 -470 -445 -470 37 0 923 887 918 919 -2
17 -91 -66 -473 -449z"/>
<path d="M985 450 c-367 -367 -445 -450 -425 -450 37 0 883 847 878 879 -2 17
-87 -63 -453 -429z"/>
<path d="M5785 450 c-367 -367 -445 -450 -425 -450 37 0 883 847 878 879 -2
17 -87 -63 -453 -429z"/>
<path d="M9785 450 c-367 -367 -445 -450 -425 -450 37 0 883 847 878 879 -2
17 -87 -63 -453 -429z"/>
<path d="M1965 430 c-351 -351 -425 -430 -405 -430 37 0 843 807 838 839 -2
17 -83 -59 -433 -409z"/>
<path d="M6765 430 c-351 -351 -425 -430 -405 -430 37 0 843 807 838 839 -2
17 -83 -59 -433 -409z"/>
<path d="M2945 410 c-335 -335 -405 -410 -385 -410 37 0 803 767 798 799 -2
17 -79 -55 -413 -389z"/>
<path d="M7745 410 c-335 -335 -405 -410 -385 -410 37 0 803 767 798 799 -2
17 -79 -55 -413 -389z"/>
<path d="M3925 390 c-319 -319 -385 -390 -365 -390 37 0 763 727 758 759 -2
17 -75 -51 -393 -369z"/>
<path d="M8725 390 c-319 -319 -385 -390 -365 -390 37 0 763 727 758 759 -2
17 -75 -51 -393 -369z"/>
<path d="M236 501 c-186 -186 -237 -243 -234 -260 2 -18 47 23 250 226 195
196 244 250 234 260 -10 9 -64 -40 -250 -226z"/>
<path d="M4904 369 c-302 -302 -364 -369 -344 -369 36 0 745 709 726 727 -10
9 -92 -68 -382 -358z"/>
<path d="M327 392 c-259 -259 -328 -334 -325 -351 2 -17 67 43 353 329 287
287 345 350 325 350 -20 0 -97 -72 -353 -328z"/>
<path d="M495 360 c-295 -295 -355 -360 -335 -360 20 0 104 79 385 360 295
295 355 360 335 360 -20 0 -104 -79 -385 -360z"/>
<path d="M695 360 c-295 -295 -355 -360 -335 -360 20 0 104 79 385 360 295
295 355 360 335 360 -20 0 -104 -79 -385 -360z"/>
<path d="M1095 360 c-295 -295 -355 -360 -335 -360 20 0 104 79 385 360 295
295 355 360 335 360 -20 0 -104 -79 -385 -360z"/>
<path d="M1295 360 c-295 -295 -355 -360 -335 -360 20 0 104 79 385 360 295
295 355 360 335 360 -20 0 -104 -79 -385 -360z"/>
<path d="M1495 360 c-295 -295 -355 -360 -335 -360 20 0 104 79 385 360 295
295 355 360 335 360 -20 0 -104 -79 -385 -360z"/>
<path d="M2095 360 c-295 -295 -355 -360 -335 -360 20 0 104 79 385 360 295
295 355 360 335 360 -20 0 -104 -79 -385 -360z"/>
<path d="M2295 360 c-295 -295 -355 -360 -335 -360 20 0 104 79 385 360 295
295 355 360 335 360 -20 0 -104 -79 -385 -360z"/>
<path d="M2495 360 c-295 -295 -355 -360 -335 -360 20 0 104 79 385 360 295
295 355 360 335 360 -20 0 -104 -79 -385 -360z"/>
<path d="M3095 360 c-295 -295 -355 -360 -335 -360 20 0 104 79 385 360 295
295 355 360 335 360 -20 0 -104 -79 -385 -360z"/>
<path d="M3295 360 c-295 -295 -355 -360 -335 -360 20 0 104 79 385 360 295
295 355 360 335 360 -20 0 -104 -79 -385 -360z"/>
<path d="M3495 360 c-295 -295 -355 -360 -335 -360 20 0 104 79 385 360 295
295 355 360 335 360 -20 0 -104 -79 -385 -360z"/>
<path d="M4095 360 c-295 -295 -355 -360 -335 -360 20 0 104 79 385 360 295
295 355 360 335 360 -20 0 -104 -79 -385 -360z"/>
<path d="M4295 360 c-295 -295 -355 -360 -335 -360 20 0 104 79 385 360 295
295 355 360 335 360 -20 0 -104 -79 -385 -360z"/>
<path d="M4495 360 c-295 -295 -355 -360 -335 -360 20 0 104 79 385 360 295
295 355 360 335 360 -20 0 -104 -79 -385 -360z"/>
<path d="M5095 360 c-295 -295 -355 -360 -335 -360 20 0 104 79 385 360 295
295 355 360 335 360 -20 0 -104 -79 -385 -360z"/>
<path d="M5295 360 c-295 -295 -355 -360 -335 -360 20 0 104 79 385 360 295
295 355 360 335 360 -20 0 -104 -79 -385 -360z"/>
<path d="M5495 360 c-295 -295 -355 -360 -335 -360 20 0 104 79 385 360 295
295 355 360 335 360 -20 0 -104 -79 -385 -360z"/>
<path d="M5895 360 c-295 -295 -355 -360 -335 -360 20 0 104 79 385 360 295
295 355 360 335 360 -20 0 -104 -79 -385 -360z"/>
<path d="M6095 360 c-295 -295 -355 -360 -335 -360 20 0 104 79 385 360 295
295 355 360 335 360 -20 0 -104 -79 -385 -360z"/>
<path d="M6295 360 c-295 -295 -355 -360 -335 -360 20 0 104 79 385 360 295
295 355 360 335 360 -20 0 -104 -79 -385 -360z"/>
<path d="M6895 360 c-295 -295 -355 -360 -335 -360 20 0 104 79 385 360 295
295 355 360 335 360 -20 0 -104 -79 -385 -360z"/>
<path d="M7095 360 c-295 -295 -355 -360 -335 -360 20 0 104 79 385 360 295
295 355 360 335 360 -20 0 -104 -79 -385 -360z"/>
<path d="M7295 360 c-295 -295 -355 -360 -335 -360 20 0 104 79 385 360 295
295 355 360 335 360 -20 0 -104 -79 -385 -360z"/>
<path d="M7895 360 c-295 -295 -355 -360 -335 -360 20 0 104 79 385 360 295
295 355 360 335 360 -20 0 -104 -79 -385 -360z"/>
<path d="M8095 360 c-295 -295 -355 -360 -335 -360 20 0 104 79 385 360 295
295 355 360 335 360 -20 0 -104 -79 -385 -360z"/>
<path d="M8295 360 c-295 -295 -355 -360 -335 -360 20 0 104 79 385 360 295
295 355 360 335 360 -20 0 -104 -79 -385 -360z"/>
<path d="M8895 360 c-295 -295 -355 -360 -335 -360 20 0 104 79 385 360 295
295 355 360 335 360 -20 0 -104 -79 -385 -360z"/>
<path d="M9095 360 c-295 -295 -355 -360 -335 -360 20 0 104 79 385 360 295
295 355 360 335 360 -20 0 -104 -79 -385 -360z"/>
<path d="M9295 360 c-295 -295 -355 -360 -335 -360 20 0 104 79 385 360 295
295 355 360 335 360 -20 0 -104 -79 -385 -360z"/>
<path d="M9885 350 c-287 -287 -345 -350 -325 -350 37 0 683 647 678 679 -2
17 -67 -43 -353 -329z"/>
<path d="M9985 250 c-207 -207 -246 -250 -225 -250 37 0 483 447 478 479 -2
18 -47 -23 -253 -229z"/>
</g>
</svg>
